# xmcd CD database file
#
# Track frame offsets:
#	150
#	22453
#	35779
#	56285
#	65478
#	88575
#	99703
#
# Disc length: 1510 seconds
#
# Revision: 0
# Processed by: cddbd v1.5.2PL0 Copyright (c) Steve Scherf et al.
# Submitted via: CDex 1.70beta2
#
DISCID=6005e407
DTITLE=La vie cherie and friends - mon enfance
DYEAR=1900
DGENRE=Jazz
TTITLE0=Au clair de la lune
TTITLE1=La Dame Tartine
TTITLE2=Marie, trempe ton pain
TTITLE3=Cadet Rousselle
TTITLE4=Il etait trois petits enfants...
TTITLE5=La mere Michel
TTITLE6=A la claire fontaine
EXTD=
EXTT0=
EXTT1=
EXTT2=
EXTT3=
EXTT4=
EXTT5=
EXTT6=
PLAYORDER=
